<svg width="270" height="126" viewBox="0 0 270 126" fill="none" xmlns="http://www.w3.org/2000/svg">
<path d="M82.6879 77.1299C81.9873 76.1232 81.2226 75.0083 80.6771 74.1928C80.6334 74.1279 80.5791 74.0741 80.5175 74.0347C80.456 73.9953 80.3884 73.9711 80.3188 73.9634C77.6022 73.6448 70.9712 72.8484 66.3401 72.2941C66.2677 72.2863 66.1947 72.2961 66.1256 72.323C66.0565 72.3499 65.9927 72.3933 65.9382 72.4505C65.8836 72.5078 65.8394 72.5777 65.8083 72.6559C65.7772 72.7342 65.7598 72.8192 65.7572 72.9058C65.7144 74.2565 65.7465 75.6836 65.7946 76.5246C64.0279 78.1432 62.4538 80.04 61.1154 82.1631C60.6484 82.8672 60.3573 83.7138 60.2753 84.6059C60.1934 85.498 60.324 86.3995 60.6521 87.2073C60.9802 88.0151 61.4926 88.6965 62.1307 89.1734C62.7687 89.6504 63.5066 89.9036 64.2599 89.9042H72.6503C73.3239 89.9045 73.989 89.7263 74.5976 89.3825C75.2062 89.0387 75.743 88.5379 76.1691 87.9163L82.6985 77.9327C82.7736 77.8173 82.8134 77.6749 82.8115 77.529C82.8095 77.3831 82.7659 77.2423 82.6879 77.1299ZM259.829 44.6112C252.658 36.6663 241.78 29.5688 226.566 22.8982C197.721 10.2577 129.303 0.433273 126.405 0.0191443C126.115 -0.0202782 125.822 0.00129141 125.539 0.0828603L101.8 7.15491H67.0353C60.2812 7.15491 48.9121 10.2003 45.8051 18.2918C37.1473 23.8029 26.8744 30.4608 24.1739 32.2129C21.3877 31.8688 12.254 31.2253 4.22713 36.1375C2.88605 36.9579 1.77386 38.2248 1.02575 39.7841C0.277633 41.3434 -0.0741901 43.128 0.0130403 44.9211C0.100271 46.7142 0.622798 48.4385 1.51711 49.8844C2.41143 51.3303 3.63901 52.4355 5.05067 53.0658C5.10656 53.093 5.1637 53.1164 5.2218 53.1359C6.16833 53.4608 28.4627 61.1636 36.4307 62.4251C38.7623 62.7947 41.2864 63.2215 44.0243 63.6803C48.88 64.4958 54.2865 65.4005 60.34 66.2988C60.3386 66.2988 60.3372 66.2981 60.3362 66.297C60.3352 66.2958 60.3347 66.2942 60.3347 66.2925L82.8964 69.0576C82.8964 69.0576 87.7093 76.4099 88.4473 77.3784C87.1873 79.1339 86.1856 81.1308 85.4847 83.2845C85.2302 84.0106 85.1301 84.8004 85.1934 85.5837C85.2567 86.3671 85.4814 87.1196 85.8476 87.7746C86.2137 88.4295 86.71 88.9666 87.2922 89.3381C87.8745 89.7096 88.5247 89.9041 89.1852 89.9042H97.8912C98.5734 89.9062 99.2471 89.7244 99.862 89.3724C100.477 89.0205 101.017 88.5075 101.442 87.8717L107.886 78.2894C108.498 77.3809 108.846 76.2613 108.881 75.0975C108.904 74.245 108.907 73.0071 108.827 71.448C108.823 71.3605 108.834 71.273 108.86 71.1908C108.885 71.1087 108.925 71.0337 108.976 70.9705C109.027 70.9074 109.088 70.8574 109.156 70.8238C109.224 70.7902 109.297 70.7737 109.37 70.7752C115.587 70.9269 139.686 70.8198 147.877 70.4567C148.002 70.4505 148.125 70.4968 148.225 70.5874C148.324 70.6781 148.394 70.8075 148.421 70.953C148.711 72.3348 148.787 73.7677 148.648 75.1822C146.032 76.9624 143.808 79.4585 142.161 82.4645C141.756 83.1838 141.522 84.0208 141.486 84.8861C141.449 85.7513 141.61 86.6121 141.952 87.3765C142.295 88.1409 142.805 88.7801 143.428 89.2256C144.052 89.6712 144.766 89.9064 145.493 89.9061H157.475C158.294 89.9069 159.098 89.6427 159.801 89.1415C161.887 87.039 167.212 81.7242 168.228 80.7092C168.34 80.5966 168.432 80.4573 168.496 80.3002L173.924 67.2163L174.86 67.1143C176.432 66.9423 179.348 66.6505 183.053 66.5154C195.069 66.0777 217.748 62.5971 226.106 61.0426C229.513 60.4055 234.823 63.1323 237.706 66.9933C238.588 68.1783 239.994 70.5102 239.465 72.7911C237.518 81.1246 228.604 88.8784 214.363 94.6316C196.78 101.735 141.833 104.169 119.025 104.883C117.727 104.924 116.48 105.499 115.497 106.51C114.514 107.521 113.854 108.906 113.629 110.43C113.405 111.954 113.629 113.524 114.265 114.873C114.9 116.223 115.907 117.269 117.116 117.836C126.87 122.397 143.699 125.538 164.994 125.538C182.881 125.538 203.924 123.321 226.561 117.867C256.406 110.681 270 87.7953 270 69.5736C270 60.4883 266.578 52.091 259.829 44.6112ZM51.7196 25.0389C52.3077 25.0389 52.8825 25.2466 53.3715 25.6359C53.8604 26.0251 54.2415 26.5784 54.4666 27.2257C54.6916 27.873 54.7505 28.5852 54.6358 29.2724C54.5211 29.9595 54.2379 30.5907 53.8221 31.0861C53.4062 31.5815 52.8764 31.9189 52.2997 32.0556C51.7229 32.1923 51.1251 32.1221 50.5818 31.854C50.0385 31.5859 49.5741 31.1319 49.2474 30.5493C48.9207 29.9668 48.7463 29.2819 48.7463 28.5813C48.7465 27.6418 49.0598 26.7409 49.6173 26.0766C50.1749 25.4123 50.9311 25.0391 51.7196 25.0389ZM44.6928 58.0035C41.9495 57.5384 39.4093 57.1115 37.0671 56.742C31.4627 55.8564 17.7299 51.3838 10.762 49.052C13.0882 49.3705 14.8957 49.4406 14.9438 49.4406C16.3449 49.4406 19.7781 49.5489 23.7514 49.6763C27.1632 49.7783 30.9386 49.8993 34.4788 49.9885L37.4681 54.3082C37.5394 54.4108 37.6306 54.4911 37.7339 54.5421C37.8372 54.593 37.9493 54.6131 38.0606 54.6005C38.1719 54.588 38.2789 54.5431 38.3723 54.47C38.4657 54.3968 38.5427 54.2975 38.5965 54.1808L40.4575 50.1032C41.4842 50.1096 42.4414 50.116 43.3131 50.116L45.7516 54.219C45.8161 54.328 45.902 54.4165 46.0018 54.4768C46.1016 54.5371 46.2123 54.5673 46.3242 54.5648C46.436 54.5623 46.5457 54.5271 46.6435 54.4624C46.7414 54.3976 46.8244 54.3053 46.8853 54.1935L49.2383 49.8356C58.2758 49.0966 72.7626 47.9752 80.8001 63.1005C66.0888 61.5969 54.3132 59.6218 44.6928 58.0035ZM171.063 83.9407C170.889 84.7545 170.897 85.6086 171.088 86.4171C171.279 87.2256 171.646 87.9598 172.151 88.5458C172.942 89.4383 173.994 89.926 175.083 89.9042H186.555C187.238 89.9069 187.911 89.7254 188.526 89.3734C189.141 89.0214 189.681 88.508 190.106 87.8717L197.293 77.1681C197.724 76.53 198.027 75.7839 198.179 74.9859C198.332 74.1879 198.331 73.359 198.176 72.5617L197.965 70.5019C197.949 70.34 197.882 70.1915 197.776 70.0875C197.671 69.9835 197.536 69.932 197.399 69.9438C192.543 70.3662 179.713 71.1977 176.747 71.4162C176.616 71.4253 176.492 71.4918 176.4 71.603C176.307 71.7141 176.253 71.8621 176.247 72.0183C176.175 73.1299 176.171 74.2463 176.234 75.3587C174.941 76.3136 173.818 77.5631 172.931 79.0358C172.044 80.5085 171.409 82.1753 171.063 83.9407Z" fill="black"/>
</svg>
